<svg width="20" height="20" viewBox="0 0 20 20" fill="none" xmlns="http://www.w3.org/2000/svg">
<g clip-path="url(#clip0_1_251)">
<path d="M19.9617 3.80742C19.2242 4.13158 18.4367 4.35242 17.6075 4.45325C18.4525 3.94408 19.1025 3.14158 19.41 2.18408C18.6175 2.64658 17.7392 2.98325 16.8042 3.17075C16.0575 2.37158 14.9933 1.87158 13.8117 1.87158C11.5475 1.87158 9.71167 3.70742 9.71167 5.96908C9.71167 6.29408 9.74917 6.60658 9.8175 6.90575C6.40917 6.74492 3.38833 5.10825 1.36667 2.63408C1.01083 3.23575 0.811667 3.93492 0.811667 4.69658C0.811667 6.12158 1.53667 7.37408 2.635 8.10991C1.9625 8.08825 1.33 7.90325 0.778333 7.59658V7.64741C0.778333 9.63494 2.18917 11.2924 4.06667 11.6699C3.7225 11.7624 3.35917 11.8124 2.98667 11.8124C2.725 11.8124 2.47417 11.7874 2.22333 11.7408C2.74917 13.3683 4.26083 14.5549 6.06 14.5883C4.66 15.6874 2.88583 16.3424 0.975 16.3424C0.65 16.3424 0.325833 16.3233 0 16.2866C1.82417 17.4483 3.97333 18.1274 6.2975 18.1274C13.8425 18.1274 17.9633 11.8808 17.9633 6.47241C17.9633 6.29825 17.9633 6.12241 17.9508 5.94741C18.7517 5.37325 19.4508 4.64742 20.0008 3.82408L19.9617 3.80742Z" fill="white"/>
</g>
<defs>
<clipPath id="clip0_1_251">
<rect width="20" height="20" fill="white"/>
</clipPath>
</defs>
</svg>
